<svg width="57" height="57" viewBox="0 0 57 57" fill="none" xmlns="http://www.w3.org/2000/svg">
<path d="M56.3615 26.7072C56.2367 29.5604 56.3615 32.4515 55.9435 35.2612C54.483 45.0042 49.1269 51.9131 40.2092 56.0665C40.0001 56.1643 39.6635 56.1507 39.4491 56.0502C30.9277 52.1085 25.6775 45.5553 23.8885 36.3199C23.5682 34.6721 23.4949 32.9592 23.4704 31.2733C23.4107 27.3153 23.4596 23.3573 23.4406 19.3993C23.4406 18.8998 23.5817 18.7016 24.0731 18.5632C29.1523 17.138 34.2206 15.6775 39.297 14.2496C39.6445 14.1518 40.0707 14.1518 40.4182 14.2496C45.4539 15.6639 50.4815 17.1108 55.5173 18.5252C56.0629 18.6799 56.2774 18.8917 56.2665 19.4943C56.2258 21.8968 56.2502 24.2993 56.2502 26.7018L56.3642 26.7072H56.3615ZM41.5882 40.9892C41.5882 40.6933 41.5882 40.4462 41.5882 40.2019C41.5882 38.1442 41.5747 36.0865 41.6045 34.0287C41.6072 33.7627 41.7728 33.4207 41.9791 33.2496C43.6134 31.8841 43.8224 29.6011 42.4216 28.0836C41.0426 26.5932 38.6889 26.5824 37.2882 28.0592C35.8711 29.5495 36.0584 31.8461 37.6737 33.2279C37.8908 33.4152 38.0646 33.7817 38.07 34.0695C38.1026 36.1272 38.0863 38.1849 38.089 40.2426C38.089 40.4843 38.1134 40.7259 38.1297 40.9892H41.5909H41.5882Z" fill="#133D75"/>
<path d="M8.78676 26.3108C8.78676 26.0149 8.78676 25.7488 8.78676 25.4801C8.78676 20.9547 8.78134 16.4266 8.79491 11.9012C8.79491 11.456 8.67546 11.1357 8.35242 10.8235C7.17153 9.6779 6.03136 8.48887 4.83962 7.35413C4.61701 7.14238 4.21253 6.99851 3.90034 7.01751C1.87247 7.13153 0.262663 5.84748 0.0237708 3.86305C-0.198833 2.03607 1.16665 0.331246 3.08593 0.0380603C5.21424 -0.287702 7.15796 1.52299 6.99508 3.73546C6.95707 4.26754 7.08466 4.62044 7.462 4.98693C8.95236 6.43657 10.4264 7.90521 11.8679 9.40643C12.1177 9.66432 12.2996 10.1068 12.3023 10.4652C12.3321 14.3281 12.3213 18.1911 12.3213 22.0541V22.8631H19.8762V26.3108H8.78676Z" fill="#133D75"/>
<path d="M19.8735 29.8697V33.3499H1.76927C1.76927 33.111 1.76927 32.8694 1.76927 32.6305C1.76927 28.0563 1.76384 23.4793 1.77741 18.9051C1.77741 18.4843 1.67425 18.2101 1.32406 17.9332C-0.26946 16.6655 -0.432341 14.377 0.925 12.8812C2.28777 11.38 4.65497 11.3528 6.06118 12.8188C7.45381 14.2711 7.34794 16.5759 5.787 17.8789C5.41237 18.1938 5.27935 18.5006 5.28206 18.9757C5.30107 22.3392 5.29292 25.7027 5.29292 29.0634V29.8697H19.8735Z" fill="#133D75"/>
<path d="M23.419 43.9616V47.4608C23.1475 47.4608 22.9059 47.4608 22.6643 47.4608C19.0755 47.4608 15.4867 47.469 11.8979 47.4527C11.4499 47.4527 11.1323 47.583 10.8229 47.9033C9.69354 49.0679 8.54523 50.2162 7.38063 51.3455C7.05216 51.6632 6.95714 51.9699 6.99243 52.4233C7.15803 54.3969 5.82512 55.9877 3.85698 56.2265C2.087 56.441 0.406616 55.1434 0.0645658 53.292C-0.339922 51.0985 1.46806 49.0842 3.74025 49.2552C4.27504 49.296 4.62523 49.1629 4.99171 48.7856C6.46036 47.279 7.95072 45.7967 9.45465 44.3254C9.65825 44.1245 9.98944 43.9453 10.2636 43.9426C14.5148 43.9182 18.766 43.9263 23.0172 43.929C23.1285 43.929 23.2398 43.948 23.4163 43.9616H23.419Z" fill="#133D75"/>
<path d="M23.4977 1.76719C26.5436 1.76719 29.5406 1.75904 32.5349 1.77533C33.0181 1.77533 33.3493 1.67489 33.6832 1.26226C34.9618 -0.306831 37.2638 -0.409989 38.7406 0.977213C40.193 2.3427 40.1903 4.67733 38.7379 6.06453C37.2828 7.45173 34.9672 7.34314 33.6777 5.77677C33.3601 5.39129 33.0479 5.27184 32.5783 5.27998C30.9766 5.30442 29.375 5.28813 27.7733 5.28813H26.9535V14.0267H23.4977V1.76719Z" fill="#133D75"/>
<path d="M19.8844 36.9087V40.4324C19.594 40.4324 19.3279 40.4324 19.0646 40.4324C15.1066 40.4324 11.1486 40.4378 7.19057 40.4242C6.77251 40.4242 6.49562 40.5274 6.21329 40.8749C4.90753 42.4819 2.59462 42.6122 1.10426 41.2033C-0.350814 39.827 -0.348099 37.5086 1.10969 36.1187C2.59462 34.7044 4.89938 34.8401 6.21057 36.4553C6.48747 36.7974 6.75622 36.9168 7.18243 36.9141C11.1404 36.8978 15.0984 36.906 19.0564 36.906H19.8844V36.9087Z" fill="#133D75"/>
<path d="M19.9143 19.3149H16.4232C16.4232 19.0434 16.4232 18.7828 16.4232 18.5222C16.4232 14.7732 16.4178 11.0269 16.4313 7.27795C16.4313 6.81103 16.3282 6.49884 15.9318 6.18394C14.36 4.94061 14.227 2.60327 15.5979 1.13463C16.9797 -0.344873 19.26 -0.374734 20.6744 1.06948C22.0779 2.50283 22.0127 4.83746 20.4654 6.12693C20.0201 6.49613 19.898 6.85718 19.9007 7.3974C19.9197 11.1002 19.9116 14.8003 19.9116 18.5032V19.3149H19.9143Z" fill="#133D75"/>
<path d="M28.0882 50.9572V54.4808C27.8629 54.4808 27.624 54.4808 27.3851 54.4808C24.5292 54.4808 21.6734 54.4699 18.8203 54.4998C18.5379 54.5025 18.1742 54.6844 17.9896 54.9043C16.6567 56.4978 14.3899 56.6987 12.8724 55.3224C11.3766 53.965 11.3495 51.5951 12.8127 50.1943C14.2867 48.7827 16.6051 48.9021 17.9108 50.5065C18.2149 50.8811 18.5189 50.968 18.956 50.9653C21.744 50.9517 24.5292 50.9599 27.3172 50.9599C27.5615 50.9599 27.8086 50.9599 28.0882 50.9599V50.9572Z" fill="#133D75"/>
</svg>
