<svg width="59" height="59" viewBox="0 0 59 59" fill="none" xmlns="http://www.w3.org/2000/svg">
<path d="M39.4744 9.42357C41.2015 9.42357 42.7027 9.44094 44.204 9.40372C44.4298 9.39875 44.7003 9.17294 44.8641 8.97939C45.9609 7.67911 47.6756 7.24485 49.1992 7.90988C50.7253 8.57491 51.5888 10.1457 51.3481 11.8132C51.1099 13.4659 49.8444 14.7016 48.1495 14.9001C46.8418 15.054 45.7475 14.5999 44.9162 13.5874C44.6507 13.2649 44.405 13.106 43.9732 13.106C39.127 13.1209 34.2782 13.0986 29.4319 13.1209C24.603 13.1433 20.7419 16.6595 20.2555 21.4363C19.789 26.017 22.933 30.2653 27.551 31.2504C28.2235 31.3944 28.9232 31.4489 29.6106 31.4539C33.1442 31.4738 36.6778 31.4539 40.2114 31.4713C40.6555 31.4713 40.9409 31.3522 41.2288 30.9924C42.5762 29.3099 44.9931 29.1511 46.5589 30.6053C48.1173 32.0495 48.1247 34.521 46.5713 35.9652C45.0179 37.4119 42.5687 37.2556 41.2312 35.5905C40.9434 35.2307 40.663 35.0967 40.2138 35.1041C38.4471 35.1314 36.6803 35.1215 34.9135 35.1289C34.8738 35.1289 34.8341 35.1686 34.6827 35.2505C35.4941 36.0545 36.3403 36.7816 37.0475 37.6278C37.8168 38.5459 38.6853 38.8859 39.8888 38.8238C41.864 38.7196 43.8517 38.8114 45.8319 38.7792C46.1073 38.7742 46.4646 38.6055 46.6408 38.3921C48.0577 36.6873 50.4449 36.4665 52.0429 37.9255C53.6063 39.3549 53.6261 41.8189 52.0876 43.288C50.5367 44.7694 48.1073 44.5833 46.6805 42.9108C46.4845 42.6825 46.0999 42.4964 45.7996 42.4939C43.0055 42.4616 40.2114 42.4641 37.4197 42.4865C36.9234 42.4914 36.5785 42.3351 36.2336 41.9877C34.1194 39.8462 31.9978 37.7146 29.8463 35.6104C29.5734 35.3448 29.1242 35.1339 28.747 35.1165C22.0843 34.7741 16.9105 29.5209 16.5606 22.6993C16.2356 16.3667 21.0124 10.5303 27.4294 9.62457C29.4468 9.3392 31.5263 9.46575 33.576 9.44838C34.0971 9.44342 34.4594 9.29701 34.8216 8.92728C36.916 6.80067 39.0401 4.70384 41.1345 2.57724C41.4819 2.22487 41.8318 2.09087 42.3231 2.09583C45.2835 2.11817 48.2438 2.1008 51.2042 2.1132C51.636 2.1132 51.9313 2.02635 52.2266 1.65165C53.5393 -0.0134009 55.9438 -0.197028 57.5021 1.20251C59.0878 2.62687 59.1473 5.07358 57.6287 6.55997C56.1398 8.01906 53.7055 7.9471 52.3357 6.34408C51.966 5.90983 51.6087 5.7659 51.0652 5.77087C48.6309 5.79568 46.1941 5.76342 43.7598 5.80065C43.4025 5.80561 42.9707 5.98179 42.7102 6.22497C41.6506 7.21259 40.6431 8.25729 39.4669 9.43101L39.4744 9.42357Z" fill="#133D75"/>
<path d="M6.16336 39.4043C4.66208 39.0991 3.25013 38.6798 1.81089 38.5507C-0.0774996 38.382 -0.318201 36.4117 0.312089 35.2529C2.07392 32.0046 3.78612 28.7242 5.63977 25.528C6.77131 23.5776 7.33708 21.5652 7.65471 19.317C8.81355 11.1058 13.3745 5.34391 20.923 1.97161C23.7072 0.72592 26.6701 0.249481 29.7099 0.251963C32.2633 0.251963 34.8192 0.251963 37.3726 0.251963H38.2188C37.9582 0.542293 37.8143 0.715995 37.6555 0.874808C36.3924 2.14283 35.1418 3.42822 33.844 4.65902C33.571 4.91958 33.1219 5.09824 32.7397 5.12306C30.5536 5.26698 28.3128 5.09824 26.1812 5.5052C17.9403 7.0834 12.3744 13.9347 12.295 22.3865C12.2876 23.1806 12.1114 23.8605 11.7293 24.5504C10.027 27.615 8.36192 30.6994 6.68446 33.7789C6.58272 33.965 6.49091 34.1561 6.35195 34.4315C7.5753 34.6821 8.74159 34.9675 9.92524 35.1462C10.496 35.233 10.6473 35.4911 10.7044 36.0097C11.0469 39.1413 11.424 42.2679 11.7714 45.3995C11.9079 46.6254 11.9948 46.7321 13.2082 46.7321C15.573 46.7321 17.9354 46.7271 20.3002 46.7321C22.196 46.737 23.4467 47.6428 24.0497 49.4493C25.0249 52.365 25.9927 55.2856 26.9604 58.2038C27.0349 58.4247 27.0895 58.653 27.1788 58.9706C25.5162 58.9706 23.9281 58.9855 22.3375 58.9458C22.1811 58.9408 21.9653 58.6306 21.8933 58.4197C21.1886 56.3676 20.4913 54.3129 19.8287 52.2483C19.6823 51.7893 19.4863 51.6131 18.985 51.6205C17.052 51.6528 15.114 51.5535 13.1834 51.6503C10.0568 51.8066 7.14353 49.7346 6.88794 45.9182C6.74402 43.7568 6.41398 41.6054 6.16087 39.3944L6.16336 39.4043Z" fill="#133D75"/>
<path d="M50.3208 25.9425C51.5417 27.1608 52.6931 28.3395 53.8867 29.4736C54.0579 29.6373 54.4425 29.6423 54.7205 29.62C56.7155 29.4686 58.4054 30.8185 58.7106 32.831C58.9861 34.6499 57.7057 36.4564 55.8396 36.8733C53.981 37.2901 52.0827 36.1512 51.5591 34.2826C51.4648 33.9427 51.3755 33.5605 51.44 33.228C51.5789 32.5009 51.2861 32.0369 50.7774 31.5605C49.631 30.481 48.5268 29.3545 47.4324 28.2204C47.1049 27.8805 46.7674 27.7638 46.3034 27.7638C40.6928 27.7763 35.0798 27.7837 29.4692 27.7663C26.7619 27.7589 24.6279 26.0467 24.0274 23.4635C23.3053 20.3641 25.4989 17.1209 28.6602 16.8703C30.9854 16.6842 33.3353 16.7884 35.6753 16.766C36.0823 16.7611 36.4867 16.7512 36.8937 16.766C37.7821 16.8057 38.4942 16.7065 39.2039 15.9273C40.5414 14.4633 42.9832 14.6543 44.3232 16.1258C45.7277 17.6693 45.5937 20.0043 44.0229 21.3791C42.5191 22.6967 40.1742 22.5627 38.8937 21.0143C38.5066 20.5478 38.1245 20.4287 37.5662 20.4336C34.8688 20.456 32.169 20.4361 29.4717 20.451C28.5213 20.456 27.8538 20.987 27.6304 21.8481C27.4344 22.595 27.7446 23.4486 28.4443 23.8159C28.8091 24.0069 29.2607 24.1087 29.6727 24.1111C35.2832 24.131 40.8963 24.1285 46.5068 24.1062C46.7947 24.1062 47.1446 23.925 47.358 23.7166C48.5615 22.5578 49.7154 21.3443 50.9238 20.1929C51.3432 19.7934 51.4896 19.4088 51.4474 18.8256C51.3134 16.9745 52.5765 15.3516 54.3309 15.0141C56.1721 14.6618 57.9389 15.6742 58.5394 17.4286C59.4179 19.9969 57.2813 22.5999 54.5914 22.255C54.3656 22.2252 54.0455 22.2649 53.8966 22.4064C52.708 23.5454 51.5516 24.7166 50.3233 25.9425H50.3208Z" fill="#133D75"/>
</svg>
