<svg width="52" height="56" viewBox="0 0 52 56" fill="none" xmlns="http://www.w3.org/2000/svg">
<path d="M8.81185 12.5089C8.98752 9.95757 9.82508 7.66247 11.4045 5.63576C16.2307 -0.558712 25.7402 -0.918608 31.0338 4.90377C31.3286 5.22859 31.5576 5.33687 32.0141 5.19047C38.5702 3.08447 45.175 7.94611 44.8958 14.6545C44.888 14.8604 44.8958 15.0678 44.8958 15.3148C47.3489 15.5832 49.3048 16.6736 50.6426 18.7064C51.7108 20.332 52.0605 22.1208 51.6621 24.0072C50.9861 27.2021 48.1755 30.5006 42.2075 29.8189C42.0396 24.8292 40.0054 20.7133 35.9258 17.6313C32.9253 15.3652 29.481 14.3129 25.6916 14.4685C21.463 14.6423 17.843 16.2344 14.9022 19.202C11.9786 22.1528 10.5419 25.7183 10.4431 29.7945C6.85599 30.2596 2.07062 27.8959 1.01034 22.926C-0.034251 18.0232 3.38813 13.1844 8.81656 12.5089H8.81185Z" fill="#133D75"/>
<path d="M10.7539 32.9206C10.9029 33.494 11.0316 33.9866 11.1727 34.5325H5.76467C5.75055 34.7201 5.72859 34.865 5.72859 35.0114C5.72702 37.0091 5.73173 39.0053 5.72232 41.003C5.72075 41.3217 5.79917 41.4971 6.13325 41.6435C7.56526 42.2718 8.25538 43.6732 7.8915 45.1159C7.54643 46.4868 6.19599 47.475 4.7734 47.3988C3.25199 47.3164 2.0631 46.2581 1.8247 44.7712C1.62393 43.5192 2.3517 42.2077 3.61431 41.6648C3.98917 41.5032 4.08328 41.3141 4.08014 40.9451C4.06446 38.6622 4.07073 36.3808 4.07387 34.0979C4.07387 33.1326 4.29345 32.9221 5.27688 32.9206C7.09315 32.9191 8.90943 32.9206 10.7555 32.9206H10.7539Z" fill="#133D75"/>
<path d="M46.9053 34.5296H41.4644C41.6039 33.9836 41.7326 33.4819 41.8659 32.9604C42.0117 32.9467 42.1451 32.9238 42.2768 32.9238C44.0178 32.9207 45.7588 32.9192 47.4998 32.9238C48.284 32.9253 48.5538 33.183 48.5569 33.9562C48.5648 36.2772 48.5679 38.5967 48.5522 40.9177C48.5491 41.3036 48.6495 41.5094 49.0416 41.6818C50.403 42.278 51.0727 43.6703 50.7418 45.0809C50.425 46.4306 49.1357 47.4187 47.7131 47.405C46.2795 47.3913 45.0436 46.4107 44.7236 45.0352C44.4052 43.6627 45.0812 42.2765 46.4207 41.6863C46.8128 41.514 46.9179 41.3112 46.9147 40.9208C46.8959 38.9993 46.9069 37.0794 46.9069 35.1579V34.5311L46.9053 34.5296Z" fill="#133D75"/>
<path d="M36.1755 41.9653V46.7934C36.1755 47.6108 36.2022 48.4297 36.1646 49.2456C36.1457 49.665 36.2696 49.8693 36.6806 50.0493C37.9871 50.6242 38.6694 52.0058 38.3808 53.3554C38.0906 54.7127 36.8343 55.7268 35.4086 55.7527C33.9969 55.7786 32.7406 54.8606 32.3626 53.5247C31.9579 52.0958 32.6716 50.6211 34.1146 49.9974C34.4424 49.8556 34.5365 49.6955 34.5334 49.3676C34.5192 47.4476 34.5396 45.5262 34.5161 43.6062C34.5114 43.1945 34.629 42.9413 35.0055 42.7431C35.3788 42.5464 35.7128 42.2764 36.174 41.9653H36.1755Z" fill="#133D75"/>
<path d="M16.4553 42.0142C16.5792 42.0584 16.598 42.063 16.6168 42.0706C17.8465 42.6074 18.2684 43.4827 18.1366 44.814C17.9908 46.3024 18.1116 47.8152 18.0959 49.3173C18.0927 49.6543 18.1555 49.848 18.5194 50.0035C19.9184 50.6013 20.6289 52.015 20.298 53.4241C19.9812 54.7706 18.6982 55.7588 17.2709 55.7542C15.842 55.7497 14.581 54.7661 14.2594 53.4058C13.93 52.0074 14.65 50.5983 16.0584 49.9959C16.4035 49.8495 16.4584 49.6665 16.4568 49.3539C16.4474 47.1107 16.4521 44.8659 16.4521 42.6226V42.0142H16.4553Z" fill="#133D75"/>
<path d="M12.1279 30.6973H18.2135C18.5131 32.8841 18.808 35.0404 19.1107 37.2516C17.8967 37.6344 16.5729 38.0507 15.2115 38.4792C13.378 36.2299 12.3459 33.6603 12.1279 30.6973Z" fill="#133D75"/>
<path d="M37.424 38.4747C36.0469 38.0416 34.7514 37.6345 33.5201 37.2486C33.8181 35.0725 34.1162 32.9024 34.4189 30.6958H40.4951C40.3006 33.636 39.2591 36.2117 37.424 38.4747Z" fill="#133D75"/>
<path d="M19.0777 22.6759C18.7954 24.7682 18.5115 26.8833 18.2213 29.0259H12.131C12.3302 26.2246 13.2854 23.7434 15.0044 21.5413C15.075 21.4514 15.2789 21.3736 15.3793 21.4071C16.6293 21.8219 17.8715 22.2581 19.0777 22.6759Z" fill="#133D75"/>
<path d="M37.4977 21.366C39.2857 23.5924 40.2848 26.1315 40.5013 29.0183H34.4109C34.1255 26.9001 33.84 24.785 33.5546 22.6561C34.8015 22.2474 36.1064 21.8204 37.4992 21.366H37.4977Z" fill="#133D75"/>
<path d="M25.4582 36.4952C23.9101 36.634 22.4013 36.7697 20.734 36.9207C20.4485 34.8665 20.1646 32.8261 19.8713 30.717H25.4582V36.4952Z" fill="#133D75"/>
<path d="M31.7744 36.9054C30.2358 36.7682 28.7269 36.634 27.1788 36.4967V30.6987H32.6355C32.579 32.8093 32.3234 34.865 31.776 36.9054H31.7744Z" fill="#133D75"/>
<path d="M32.648 29.0365H27.1725V23.4337C28.697 23.2919 30.2216 23.1516 31.8057 23.0037C32.3531 24.9495 32.5539 26.9534 32.6495 29.0365H32.648Z" fill="#133D75"/>
<path d="M20.6964 22.9946C22.4044 23.1517 23.8992 23.289 25.4457 23.4292V29.0336H19.8839C20.1584 26.9901 20.4282 24.9939 20.6964 22.9946Z" fill="#133D75"/>
<path d="M31.3478 21.4453C29.9048 21.5718 28.5575 21.6908 27.1694 21.8128V15.9858C27.5866 16.1749 27.9803 16.271 28.2689 16.4967C29.6209 17.552 30.3597 19.016 31.0075 20.5303C31.1188 20.7911 31.2066 21.0625 31.3478 21.4468V21.4453Z" fill="#133D75"/>
<path d="M21.2783 21.4391C21.9324 19.6595 22.6601 18.1086 23.9259 16.8627C24.3321 16.4631 24.7446 16.0209 25.4583 16.1231V21.8112C24.0717 21.6877 22.7056 21.5672 21.2783 21.4391Z" fill="#133D75"/>
<path d="M25.3375 43.7816C24.9391 43.5513 24.4937 43.3744 24.1517 43.0816C22.9362 42.0385 22.2351 40.663 21.6265 39.2356C21.5371 39.0267 21.4665 38.8101 21.3411 38.4731C22.7323 38.3496 24.0718 38.2306 25.4567 38.1086V43.5894L25.3375 43.7801V43.7816Z" fill="#133D75"/>
<path d="M27.1678 43.6292V38.1118C28.5497 38.2323 29.8938 38.3482 31.2976 38.4702C30.6294 40.2315 29.8828 41.8084 28.5402 43.0375C28.1764 43.3715 27.8062 43.742 27.1678 43.6292Z" fill="#133D75"/>
<path d="M30.998 16.8442C32.9492 17.4847 34.6855 18.5446 36.3183 20.0848C35.1607 20.4478 34.1052 20.7787 33.0935 21.0959C32.372 19.6304 31.6866 18.2396 30.9996 16.8442H30.998Z" fill="#133D75"/>
<path d="M19.5404 21.0839C18.5586 20.785 17.5061 20.4647 16.3063 20.1003C17.9124 18.5554 19.6643 17.5124 21.6422 16.8337C20.9505 18.2337 20.2651 19.6168 19.5404 21.0839Z" fill="#133D75"/>
<path d="M33.0355 38.8042C34.0471 39.1046 35.0855 39.4127 36.2304 39.7527C34.6337 41.2289 32.9288 42.2659 30.9886 42.9049C31.6615 41.5568 32.3218 40.2331 33.0355 38.8042Z" fill="#133D75"/>
<path d="M19.5953 38.8057C20.3121 40.2407 20.9708 41.5613 21.6437 42.9109C19.7066 42.2719 18.0158 41.2289 16.405 39.7618C17.5422 39.4202 18.5868 39.1076 19.5953 38.8057Z" fill="#133D75"/>
</svg>
