<svg width="58" height="58" viewBox="0 0 58 58" fill="none" xmlns="http://www.w3.org/2000/svg">
<path d="M28.7785 32.8486C28.6191 34.0228 28.7717 34.9502 30.2047 35.0067C30.0693 35.257 29.9836 35.4233 29.891 35.5861C29.5945 36.1021 29.6647 36.5632 30.083 36.9814C30.9761 37.8727 31.864 38.7692 32.7605 39.6554C33.3638 40.252 33.561 40.2468 34.7026 39.6743C35.1025 40.4914 35.8448 40.9753 36.9292 41.1262V53.3822C36.7081 53.3822 36.4836 53.3822 36.259 53.3822C31.8331 53.3822 27.4072 53.3822 22.9796 53.3822C22.0352 53.3822 21.8517 53.5073 21.4935 54.3918H17.4927C17.323 53.5176 16.7111 53.3685 15.9209 53.3719C11.5584 53.3925 7.19593 53.3822 2.83518 53.3822H2.05011V52.6691C2.05011 46.5548 2.05011 40.4405 2.05011 34.3245C2.05011 33.1486 2.35008 32.8486 3.52598 32.8486C11.6938 32.8486 19.8616 32.8486 28.0312 32.8486H28.7768H28.7785ZM14.409 42.1187V44.1002H16.3802V42.1187H14.409ZM18.4938 44.0882H20.4907V42.1375H18.4938V44.0882ZM22.618 44.1053H24.5995V42.1358H22.618V44.1053Z" fill="#133D75"/>
<path d="M41.2214 24.0002C41.158 23.786 41.1083 23.6249 41.0637 23.4603C40.9026 22.8621 40.5169 22.5775 39.8947 22.5809C38.6536 22.5878 37.4143 22.581 36.1733 22.5844C35.3848 22.5878 35.1139 22.8004 34.8928 23.558C34.8517 23.7003 34.7968 23.8374 34.7386 24.0037C34.586 23.9231 34.4557 23.8545 34.3289 23.7843C33.6415 23.4054 33.3055 23.4466 32.733 24.0122C31.9582 24.7785 31.204 25.5687 30.4069 26.3126C30.1995 26.5063 29.8653 26.6692 29.5893 26.6726C26.5947 26.6983 23.6019 26.6983 20.6073 26.6846C18.2401 26.6743 16.4196 24.8659 16.4265 22.5655C16.4334 20.2686 18.2572 18.4945 20.6381 18.4756C21.1506 18.4722 21.6649 18.4756 22.1774 18.4756C23.2796 18.4739 23.5813 18.1808 23.619 17.0854C23.7647 12.807 27.001 9.05303 31.2177 8.36567C34.5671 7.81886 37.4229 8.81991 39.7404 11.3088C40.6094 12.243 40.906 12.2773 41.8608 11.4768C43.604 10.0181 46.0518 9.86039 47.9511 11.0843C49.828 12.2927 50.7657 14.576 50.0937 16.7238C49.7629 17.7814 50.2052 18.5682 51.4548 18.4962C52.3872 18.4413 53.3489 18.4396 54.2625 18.6076C56.2886 18.9796 57.6462 20.8754 57.4799 22.9255C57.3136 24.979 55.5995 26.6452 53.5289 26.6794C51.1136 26.7189 48.695 26.6983 46.2798 26.6794C46.0587 26.6777 45.7913 26.5423 45.625 26.3846C44.9256 25.7247 44.2571 25.0322 43.5766 24.3516C42.5636 23.3386 42.5378 23.3352 41.218 24.0037L41.2214 24.0002Z" fill="#133D75"/>
<path d="M33.7324 6.17156C30.6349 6.019 27.8975 6.86064 25.556 8.8456C23.2333 10.8151 21.9546 13.3538 21.5912 16.3724C20.9021 16.4203 20.2422 16.4323 19.5942 16.5181C18.3052 16.6895 17.2116 17.2757 16.2568 18.155C16.0631 18.3333 15.7426 18.4602 15.4803 18.4619C11.7178 18.4807 7.95528 18.4842 4.19105 18.4722C1.82041 18.4653 0 16.6638 0 14.3668C0 12.0665 1.82212 10.2855 4.19619 10.2632C4.77385 10.258 5.35152 10.2666 5.92746 10.2615C6.80681 10.2529 7.15478 9.90494 7.18906 9.0153C7.35876 4.64427 10.2505 1.11659 14.5255 0.22353C17.9624 -0.49469 20.897 0.533787 23.2985 3.07927C24.2035 4.03918 24.4521 4.07347 25.4668 3.23526C28.4374 0.780623 33.0261 2.36619 33.7324 6.16985V6.17156Z" fill="#133D75"/>
<path d="M33.6878 25.8566C35.1951 26.5697 36.227 26.1697 36.7835 24.6567H39.1919C39.7667 26.1846 40.7866 26.5886 42.2516 25.8686C42.7298 26.3606 43.2458 26.8697 43.7275 27.4062C43.8183 27.5073 43.832 27.7525 43.7772 27.8896C43.6675 28.1638 43.4738 28.4038 43.3349 28.6678C42.951 29.3946 43.2132 30.0391 43.9914 30.2739C44.3583 30.3854 44.7354 30.4642 45.1399 30.5671V33.0388C43.6349 33.5885 43.2412 34.621 43.9589 36.1363C43.4652 36.5922 42.9441 37.0945 42.3939 37.5624C42.291 37.6498 42.0459 37.6567 41.9105 37.5984C41.6191 37.475 41.3637 37.2659 41.0774 37.1236C40.4123 36.7945 39.7747 37.0636 39.5501 37.7716C39.4284 38.1572 39.3461 38.5566 39.2399 38.9749H36.7509C36.6567 38.632 36.5607 38.2704 36.4595 37.9087C36.211 37.0276 35.5888 36.7551 34.8003 37.1767C34.0952 37.555 33.4627 37.463 32.9027 36.9008C32.6165 36.6162 32.3131 36.3505 32.0457 36.102C32.7393 34.5444 32.3325 33.5239 30.8252 33.0406V30.5756C31.2057 30.4762 31.5948 30.3871 31.9754 30.2722C32.7587 30.0374 33.0227 29.398 32.649 28.6695C32.2685 27.9279 32.3719 27.2622 32.9593 26.6726C33.213 26.4154 33.441 26.1309 33.6861 25.8515L33.6878 25.8566ZM37.9611 35.9271C40.2323 35.9357 42.0853 34.0999 42.0939 31.8304C42.1025 29.5643 40.2546 27.7147 37.9817 27.7147C35.7413 27.7147 33.8986 29.5403 33.8815 31.7772C33.8643 34.0502 35.6985 35.9169 37.9594 35.9254L37.9611 35.9271Z" fill="#133D75"/>
<path d="M0.385686 55.463C0.514246 55.451 0.598238 55.4355 0.682231 55.4355C5.55722 55.4355 10.4305 55.4355 15.3535 55.4355C15.5163 56.3098 16.1163 56.4863 16.9116 56.4726C18.6857 56.4383 20.4616 56.464 22.2357 56.4606C23.1322 56.4606 23.331 56.32 23.6619 55.4578H38.6742C38.5919 55.9241 38.6091 56.4057 38.412 56.7726C38.2457 57.0794 37.8497 57.2868 37.5155 57.4668C37.3492 57.5559 37.0955 57.4874 36.8829 57.4874C25.3794 57.4874 13.8759 57.4788 2.37236 57.4976C0.767937 57.5011 0.51596 57.3194 0.383972 55.463H0.385686Z" fill="#133D75"/>
<path d="M52.3632 30.8259H54.4168V31.479C54.4168 35.2415 54.4185 39.004 54.4168 42.7666C54.4151 46.0937 52.2501 48.2466 48.9076 48.2483C46.3638 48.2483 43.8183 48.2449 41.2745 48.2415C41.2351 48.2415 41.194 48.2226 41.1117 48.2004V46.1965H41.8059C44.1577 46.1965 46.5095 46.1965 48.8613 46.1965C51.1668 46.1965 52.3615 44.9915 52.3615 42.6671C52.3615 38.968 52.3615 35.2707 52.3615 31.5716V30.8276L52.3632 30.8259Z" fill="#133D75"/>
<path d="M35.9368 31.7687C35.9642 30.6511 36.9018 29.7529 38.0229 29.77C39.161 29.7889 40.0832 30.7642 40.0387 31.9041C39.9941 33.0166 39.0359 33.9062 37.92 33.8719C36.8093 33.8359 35.911 32.8829 35.9368 31.7687Z" fill="#133D75"/>
</svg>
