<svg width="59" height="59" viewBox="0 0 59 59" fill="none" xmlns="http://www.w3.org/2000/svg">
<path d="M24.7695 37.4004H31.2093V31.533C31.1173 31.5236 31.0253 31.5062 30.9317 31.503C29.5977 31.4699 29.5375 31.4762 29.3693 30.1384C29.2456 29.164 28.903 28.5306 27.8767 28.2685C27.1376 28.0805 26.4571 27.6794 25.7338 27.4156C25.5514 27.3493 25.2739 27.3824 25.1025 27.4804C24.6061 27.7631 24.1429 28.1042 23.6639 28.4169C23.2785 28.6696 22.9247 28.6333 22.5964 28.3032C21.7177 27.4235 20.8358 26.5454 19.9523 25.6688C19.6208 25.3403 19.5938 24.9881 19.846 24.6043C19.8999 24.5222 19.9412 24.4274 20.011 24.3595C20.9928 23.3929 20.9944 22.3726 20.3234 21.2071C19.8872 20.4474 19.6255 19.5866 19.2655 18.7211C20.7549 17.8651 22.2173 17.0249 23.7004 16.172C24.4713 21.0223 27.0075 23.9046 30.9127 24.4195C34.8225 24.9344 38.4073 22.9586 39.9332 19.446C41.4099 16.0456 40.4534 12.0624 37.6158 9.68548C34.8511 7.36853 30.3813 6.8189 26.7379 9.6839C24.9757 7.7302 23.0199 8.13768 21.0118 9.36328C20.5836 8.72363 20.1363 8.16453 19.8238 7.5391C19.7032 7.29745 19.7715 6.79995 19.9539 6.60095C20.8056 5.66911 21.724 4.79887 22.6234 3.90968C22.9327 3.60486 23.2785 3.57012 23.6433 3.81176C24.1049 4.11658 24.549 4.45299 25.0328 4.71675C25.239 4.82888 25.5625 4.87784 25.7735 4.79887C26.7728 4.4293 27.7578 4.01866 28.7333 3.58749C28.9093 3.5101 29.0822 3.28583 29.1362 3.0963C29.2805 2.58616 29.3741 2.06023 29.4613 1.53745C29.5501 1.0052 29.8261 0.746185 30.3845 0.754081C31.5915 0.768296 32.7986 0.768296 34.0057 0.754081C34.5688 0.747764 34.905 1.021 34.9114 1.54535C34.9288 3.05208 35.7489 3.717 37.1098 4.2682C38.4549 4.81309 39.516 4.98682 40.6057 3.91284C41.0355 3.48957 41.4844 3.6096 41.8984 4.03603C42.6963 4.85731 43.5084 5.66595 44.3332 6.46038C44.7646 6.87576 44.8614 7.3322 44.4474 7.75231C43.372 8.84051 43.5401 9.89869 44.1079 11.2285C44.6631 12.5284 45.269 13.3733 46.779 13.4239C47.5007 13.4476 47.6276 13.7145 47.6356 14.4363C47.6372 14.6526 47.6356 14.8674 47.6356 15.1833H53.5298C53.5551 15.0554 53.59 14.9653 53.59 14.8737C53.5932 12.9422 53.5773 11.0122 53.6059 9.08057C53.6122 8.6573 53.3442 8.61466 53.0825 8.49462C51.7501 7.8834 50.9173 6.52198 51.022 5.12581C51.1346 3.62539 52.0927 2.39822 53.4869 1.9702C55.2492 1.43006 57.143 2.34294 57.8076 4.05341C58.4643 5.74334 57.7204 7.68598 56.0565 8.43777C55.5838 8.65098 55.4807 8.90052 55.4855 9.3617C55.5045 11.5286 55.4966 13.6971 55.4934 15.864C55.4918 16.7532 55.1714 17.0722 54.2752 17.0738C52.2957 17.0786 50.3162 17.0754 48.3382 17.0754C48.1257 17.0754 47.9132 17.0754 47.7276 17.0754C47.6832 17.1654 47.6514 17.1986 47.6514 17.2333C47.6514 18.759 47.6403 18.7511 46.1208 18.9564C45.1945 19.0812 44.6901 19.4634 44.4284 20.3447C44.2126 21.076 43.8288 21.7583 43.5798 22.4832C43.5004 22.7138 43.5496 23.0439 43.6606 23.2713C43.8478 23.6583 44.1317 23.9978 44.3728 24.3579C44.8598 25.0844 44.8439 25.2692 44.2285 25.8804C44.1032 26.0052 43.9509 26.1047 43.8653 26.1726C46.7822 29.0692 49.6468 31.9153 52.5781 34.826C53.5884 34.2985 54.7907 34.1453 56.0232 34.6349C56.8972 34.9824 57.5697 35.5778 58.0329 36.396C58.9592 38.0353 58.5944 40.1154 57.1716 41.3426C55.7409 42.5776 53.6455 42.6566 52.1292 41.5321C50.5049 40.327 50.1116 38.4002 51.0395 36.3265C48.1622 33.4662 45.296 30.617 42.406 27.7425C42.3838 27.7583 42.2997 27.8089 42.2315 27.8736C41.2751 28.7833 41.2227 28.8497 40.1679 28.0158C39.3273 27.3508 38.5944 27.264 37.6776 27.7962C37.086 28.1405 36.4151 28.3553 35.7647 28.5859C35.3967 28.7154 35.2397 28.9429 35.1874 29.3061C35.1271 29.7152 35.0303 30.1179 34.951 30.5222C34.7829 31.3735 34.6386 31.4936 33.7725 31.4999C33.5964 31.4999 33.4188 31.4999 33.1618 31.4999C33.1618 31.7478 33.1618 31.9563 33.1618 32.1664C33.1618 34.1374 33.1634 36.1069 33.1618 38.078C33.1618 38.9988 32.8446 39.3099 31.9056 39.3099C29.6881 39.3131 27.4723 39.3194 25.2548 39.302C24.8884 39.2989 24.7155 39.4015 24.5601 39.7506C23.8717 41.2999 22.2094 42.1212 20.6089 41.7532C18.9704 41.3773 17.8205 39.9385 17.8411 38.2912C17.8617 36.636 19.0291 35.2509 20.6946 34.905C22.3077 34.5702 23.9129 35.4278 24.6029 36.993C24.6584 37.1193 24.7108 37.2457 24.7758 37.3989L24.7695 37.4004ZM54.529 40.4281C55.6933 40.4281 56.6481 39.4836 56.6481 38.3354C56.6481 37.1825 55.6949 36.2443 54.5274 36.2443C53.36 36.2443 52.4099 37.1825 52.4099 38.337C52.4099 39.4868 53.3632 40.4281 54.529 40.4281ZM22.9533 38.3165C22.9454 37.4226 22.2126 36.7103 21.3195 36.7308C20.463 36.7497 19.7461 37.4731 19.7397 38.3244C19.7318 39.2057 20.463 39.9306 21.3592 39.929C22.2665 39.929 22.9628 39.223 22.9549 38.3149L22.9533 38.3165ZM56.139 5.29638C56.1279 4.40877 55.3951 3.70594 54.4957 3.72016C53.6217 3.73437 52.927 4.43246 52.9207 5.3027C52.9143 6.18715 53.6455 6.92156 54.5306 6.91998C55.4141 6.9184 56.1485 6.17609 56.1374 5.29638H56.139Z" fill="#133D75"/>
<path d="M11.5138 19.1853V30.7969H0.651776C0.639087 30.6185 0.618467 30.4653 0.618467 30.3136C0.61688 25.8408 0.607364 21.368 0.621639 16.8952C0.631156 13.9797 2.55517 11.7591 5.44199 11.3706C7.15504 11.14 8.64604 11.6975 9.88166 12.8899C10.9444 13.9165 12.1848 14.5151 13.6758 14.3587C14.3483 14.2892 15.0367 14.0839 15.6489 13.7949C18.0425 12.6656 20.409 11.4843 22.7803 10.3124C23.3117 10.0502 23.8462 9.88435 24.4347 10.066C25.7227 10.4608 26.2223 11.966 25.3864 13.021C25.1247 13.3511 24.7646 13.6338 24.3966 13.8486C21.6827 15.428 18.9513 16.9774 16.2358 18.5536C15.457 19.0053 14.6243 19.1837 13.7408 19.1869C13.0302 19.1885 12.3196 19.1869 11.5154 19.1869L11.5138 19.1853Z" fill="#133D75"/>
<path d="M0.548706 32.5154H11.5218C11.4964 32.9371 11.471 33.3256 11.452 33.7126C11.1998 39.0461 10.9476 44.3797 10.697 49.7133C10.6462 50.7762 10.5923 51.8391 10.5558 52.902C10.5257 53.8149 10.8683 54.344 11.7169 54.6915C12.4655 54.9979 13.2285 55.2727 13.9787 55.5743C14.8591 55.9281 15.2445 56.6088 15.0811 57.487C14.9304 58.2924 14.3515 58.7331 13.3998 58.7363C11.3616 58.7426 9.32177 58.7426 7.28355 58.7363C6.10979 58.7331 5.51022 58.2198 5.38174 57.0747C5.01217 53.807 4.59977 50.5424 4.31584 47.2652C4.11757 44.9672 3.64648 42.7798 2.69003 40.6666C1.95405 39.0398 1.32434 37.3514 0.829457 35.6378C0.548706 34.6665 0.632773 33.5894 0.548706 32.5154Z" fill="#133D75"/>
<path d="M10.632 5.8886C10.6384 8.3856 8.57952 10.4451 6.07656 10.442C3.58945 10.4388 1.55282 8.41719 1.53696 5.93756C1.5211 3.41687 3.54345 1.37315 6.05752 1.36526C8.58269 1.35736 10.6257 3.37739 10.6336 5.88702L10.632 5.8886Z" fill="#133D75"/>
<path d="M30.6636 17.1971C32.1831 15.6794 33.6202 14.2437 35.0604 12.8112C35.227 12.6454 35.3967 12.4732 35.5934 12.3469C36.0359 12.0657 36.6006 12.1447 36.9432 12.5269C37.3001 12.9249 37.335 13.3766 37.0717 13.8346C36.9749 14.0021 36.8274 14.1426 36.6878 14.2816C34.9415 16.0237 33.1951 17.7641 31.4456 19.5015C30.597 20.3433 29.9102 20.2596 29.3138 19.2409C28.6777 18.1542 28.0433 17.0661 27.4183 15.9715C27.0265 15.2845 27.1566 14.6575 27.734 14.3321C28.3129 14.0052 28.9188 14.2121 29.3185 14.8865C29.7579 15.6272 30.1846 16.3743 30.6604 17.1971H30.6636Z" fill="#133D75"/>
<path d="M3.95888 57.3795C2.55989 57.6765 1.85722 57.149 1.77791 55.816C1.52095 51.5737 1.25447 47.3315 0.997517 43.0893C0.972138 42.6787 0.994344 42.2649 0.994344 41.6995C1.35758 42.2949 1.61929 42.8271 1.97777 43.2852C2.56306 44.0338 2.62175 44.9088 2.7185 45.7869C3.11504 49.4037 3.51634 53.0205 3.91447 56.6388C3.94143 56.8884 3.94619 57.1395 3.96205 57.3811L3.95888 57.3795Z" fill="#133D75"/>
</svg>
