<svg width="72" height="55" viewBox="0 0 72 55" fill="none" xmlns="http://www.w3.org/2000/svg">
<path d="M27.124 54.8596C27.124 53.3565 27.034 51.9495 27.1526 50.561C27.2528 49.381 28.0401 48.4812 28.7886 47.5875C31.85 43.9372 30.6864 38.3666 26.4348 36.2275C25.0912 35.5506 24.5555 35.888 24.5534 37.4095C24.5514 38.9698 24.533 40.5281 24.5616 42.0864C24.5739 42.8186 24.263 43.0762 23.5493 43.0762C21.6168 43.0803 21.6168 43.1008 21.6168 41.1703C21.6168 39.8144 21.627 38.4606 21.6127 37.1048C21.6004 35.9903 21.0339 35.6385 20.0176 36.0884C15.7067 37.9985 14.2098 43.655 17.222 47.3196C18.6781 49.0926 19.3305 50.9331 19.1525 53.1561C19.1096 53.6857 19.1464 54.2215 19.1464 54.8596H18.3345C13.9378 54.8596 9.54305 54.8596 5.14628 54.8596C4.11355 54.8596 4.04402 54.79 3.89473 53.7593C2.89472 46.8084 1.89267 39.8574 0.88857 32.9064C0.727014 31.7939 0.882435 31.6099 2.03173 31.6099C14.7333 31.6099 27.4369 31.6099 40.1384 31.6099C41.2632 31.6099 41.39 31.7653 41.2345 32.8512C40.2427 39.8042 39.2529 46.7572 38.2652 53.7103C38.1159 54.7655 38.0259 54.8596 36.9646 54.8596C33.9236 54.8596 30.8827 54.8596 27.8397 54.8596C27.6127 54.8596 27.3857 54.8596 27.124 54.8596Z" fill="#133D75"/>
<path d="M71.1694 54.8146C70.742 54.8371 70.515 54.8576 70.29 54.8576C66.6867 54.8596 63.0814 54.8473 59.4781 54.8719C58.9157 54.876 58.6846 54.7144 58.566 54.1541C57.7132 50.1602 56.8196 46.1745 55.9668 42.1806C55.8932 41.8329 55.9443 41.4178 56.0609 41.0763C56.3513 40.2337 56.7153 39.4178 57.067 38.5445C57.2511 38.6141 57.4106 38.6672 57.5639 38.7327C58.3104 39.0538 58.6723 38.9392 59.0568 38.1969C59.8789 36.61 60.6826 35.0149 61.4965 33.4238C61.5538 33.3114 61.6233 33.205 61.6765 33.113C61.746 33.0844 61.8032 33.0373 61.836 33.0496C64.4352 34.0639 66.7583 35.5425 68.7992 37.428C70.2266 38.747 70.789 40.5548 70.8708 42.4117C71.0528 46.516 71.0774 50.6285 71.1673 54.8146H71.1694Z" fill="#133D75"/>
<path d="M59.3288 23.5532C57.6969 22.8661 56.2592 23.0236 54.8523 23.1708C53.7316 23.2874 52.8727 24.408 52.8461 25.5512C52.8379 25.8763 52.8768 26.2015 52.8931 26.5246C49.3696 27.1361 45.5966 24.2792 45.3573 20.6575C45.1794 17.9601 45.2694 15.2464 45.2734 12.5388C45.2734 11.7985 45.6497 11.5163 46.4984 11.5122C48.617 11.504 50.7398 11.4509 52.8563 11.5245C55.1733 11.6042 57.1243 10.9253 58.6764 9.03979C59.6335 10.0132 60.1713 11.1523 60.1979 12.4529C60.2511 15.0828 60.292 17.7188 60.1713 20.3426C60.1223 21.3957 59.6376 22.4285 59.3267 23.5512L59.3288 23.5532Z" fill="#133D75"/>
<path d="M43.4227 11.9269H41.0178C40.6067 7.79186 41.026 4.28059 44.9974 1.85316C46.2448 1.09037 47.6334 0.773397 49.0894 0.763172C50.57 0.752947 52.0526 0.748857 53.5332 0.763172C56.1427 0.789757 58.0956 2.71206 58.0936 5.23151C58.0895 7.75914 56.1468 9.65282 53.521 9.66509C51.2735 9.67532 49.026 9.66509 46.7786 9.66714C44.9033 9.66714 44.1426 10.1743 43.4248 11.9269H43.4227Z" fill="#133D75"/>
<path d="M39.9544 54.8576C40.2979 52.4383 40.6231 50.1418 40.9523 47.8453C41.5965 43.3462 42.2386 38.8452 42.8889 34.3482C42.9687 33.8042 42.8562 33.1069 43.7969 33.0537C44.5945 34.6079 45.4084 36.1928 46.2223 37.7797C46.8828 39.0701 47.0464 39.1315 48.4166 38.518C48.8154 39.5078 49.2244 40.4914 49.5986 41.4894C49.662 41.6591 49.5945 41.8922 49.5516 42.0865C48.6681 46.1254 47.7847 50.1643 46.8726 54.1971C46.8174 54.4445 46.525 54.8269 46.3368 54.831C44.2448 54.876 42.1527 54.8596 39.9544 54.8596V54.8576Z" fill="#133D75"/>
<path d="M25.1833 54.8086H20.9869C20.9869 53.9742 20.9542 53.1889 20.993 52.4077C21.1076 50.1194 20.3673 48.1827 18.854 46.4527C16.9664 44.2972 17.0809 41.1029 19.0073 39.0497C19.1914 38.8534 19.4082 38.6837 19.7763 38.3503C19.7763 39.7041 19.7476 40.8616 19.7885 42.017C19.8069 42.5406 19.8581 43.1132 20.081 43.5712C20.7067 44.8596 21.9112 44.925 23.1628 44.925C24.3755 44.925 25.5002 44.786 26.0933 43.5712C26.306 43.1336 26.3653 42.5917 26.3816 42.0927C26.4225 40.9209 26.3939 39.7471 26.3939 38.4117C26.6761 38.6264 26.8581 38.7389 27.0095 38.8841C28.989 40.8023 29.3305 44.1111 27.5003 46.2011C25.6802 48.2768 24.991 50.5795 25.1812 53.2503C25.216 53.7513 25.1853 54.2585 25.1853 54.8086H25.1833Z" fill="#133D75"/>
<path d="M51.3512 42.4979C53.1808 42.3371 54.2817 43.0944 54.6539 44.77C55.3553 47.9602 56.0465 51.1524 56.7398 54.3447C56.7705 54.4878 56.7848 54.6351 56.8093 54.815H48.6518C49.5598 50.6739 50.4534 46.5961 51.3512 42.4979Z" fill="#133D75"/>
<path d="M56.9688 28.2784C57.2408 29.5238 57.112 30.4625 56.0158 31.2171C54.8665 32.0065 53.8543 32.9963 52.752 33.9226C51.3532 32.7488 49.981 31.6036 48.6231 30.442C48.5066 30.3439 48.4268 30.1414 48.4227 29.984C48.4023 29.2457 48.4145 28.5075 48.4145 27.624C51.2182 28.9921 54.1058 28.213 56.9688 28.2784Z" fill="#133D75"/>
<path d="M64.6601 11.9166H62.0322C61.7439 10.1947 61.0179 8.71001 59.7827 7.48709C59.6887 7.39507 59.6662 7.15989 59.703 7.01674C60.0731 5.59546 60.0179 4.19667 59.478 2.81629C61.5271 2.78562 63.8523 4.63635 64.3124 6.94107C64.6314 8.54027 64.5537 10.2172 64.658 11.9166H64.6601Z" fill="#133D75"/>
<path d="M62.0977 19.8491V13.8224C62.838 13.8224 63.5783 13.7324 64.2859 13.847C65.0486 13.9717 65.5681 14.5157 65.611 15.3235C65.6621 16.3132 65.6683 17.3112 65.611 18.301C65.5619 19.166 64.9648 19.7529 64.0834 19.8368C63.4556 19.8981 62.8196 19.8491 62.0956 19.8491H62.0977Z" fill="#133D75"/>
<path d="M43.3757 13.786V19.9006C42.572 19.8556 41.7806 19.9067 41.0341 19.7411C40.2632 19.5713 39.8767 18.9231 39.8439 18.1398C39.8071 17.2727 39.8051 16.4036 39.8419 15.5365C39.8869 14.4711 40.6006 13.8126 41.6742 13.786C42.2284 13.7717 42.7847 13.7839 43.3757 13.7839V13.786Z" fill="#133D75"/>
<path d="M50.0915 37.596C50.8829 37.1747 51.6804 36.733 52.4964 36.3281C52.6436 36.2544 52.8952 36.2708 53.0465 36.3465C53.84 36.7432 54.6191 37.1726 55.4473 37.6164C55.0833 38.5244 54.752 39.3976 54.3737 40.2504C54.3021 40.4099 54.0465 40.4917 53.8706 40.598C53.8338 40.6205 53.7704 40.6001 53.7193 40.6021C51.0465 40.6921 50.979 40.6348 50.0915 37.5939V37.596Z" fill="#133D75"/>
<path d="M60.2306 26.5322C60.1979 26.4648 60.1795 26.4423 60.1795 26.4218C60.2408 25.2984 60.8386 24.7361 61.9729 24.7347C62.2286 24.7347 62.4842 24.7449 62.7398 24.7245C63.5824 24.659 64.1468 24.1498 64.0711 23.2725C63.975 22.1723 64.2572 21.4893 65.4331 21.3584C65.5538 21.3441 65.6662 21.2664 65.7848 21.2234C65.8053 21.2152 65.8339 21.2295 65.8605 21.2357C66.3022 25.1355 65.3084 27.0496 60.2326 26.5302L60.2306 26.5322Z" fill="#133D75"/>
<path d="M47.7581 36.7388C46.9974 35.2501 46.2816 33.8493 45.5659 32.4525C46.6681 31.6734 47.2305 31.6877 48.208 32.5118C49.1405 33.2971 50.0731 34.0844 51.1058 34.9556C49.9708 35.5589 48.9094 36.1233 47.7581 36.7368V36.7388Z" fill="#133D75"/>
<path d="M57.7398 36.7431C56.5966 36.1317 55.5475 35.5734 54.3962 34.9579C55.6682 33.8842 56.84 32.8719 58.0486 31.9067C58.1999 31.786 58.568 31.8863 58.8196 31.9496C59.1836 32.0417 59.5333 32.191 59.977 32.3484C59.2265 33.8208 58.5046 35.2401 57.7398 36.7431Z" fill="#133D75"/>
<path d="M56.4862 26.4259C56.1283 26.4259 55.7337 26.5199 55.4269 26.3972C55.1324 26.2807 54.7418 25.9412 54.7377 25.6917C54.7316 25.4463 55.1324 25.0107 55.3962 24.976C56.1488 24.8778 56.93 24.8778 57.6805 24.978C57.9402 25.0128 58.337 25.4606 58.3267 25.704C58.3145 25.9555 57.9198 26.2929 57.6232 26.3972C57.2838 26.5179 56.8686 26.4259 56.4862 26.4238V26.4259Z" fill="#133D75"/>
</svg>
