<svg width="52" height="59" viewBox="0 0 52 59" fill="none" xmlns="http://www.w3.org/2000/svg">
<path d="M32.3309 39.0602C31.3045 39.4695 30.3387 39.8422 29.3865 40.2484C29.2427 40.3095 29.0853 40.5112 29.0671 40.6639C29.0202 41.0396 29.0595 41.4245 29.0489 41.8048C29.0308 42.5547 28.7038 42.8831 27.9696 42.8954C27.5744 42.9015 27.1778 42.8954 26.7358 42.8954V50.1427C29.335 51.1751 30.5537 53.1011 30.0587 55.4074C29.609 57.4969 27.7379 58.9616 25.611 58.8913C23.5885 58.8241 21.7719 57.2158 21.4797 55.2318C21.1315 52.8598 22.3774 50.9674 24.8435 50.1625V42.8938C24.4135 42.8938 24.0033 42.8999 23.593 42.8938C22.8831 42.8816 22.4319 42.5364 22.544 41.8598C22.7529 40.5967 22.2155 40.0407 21.0664 39.8208C20.688 39.749 20.2959 39.5718 19.9886 39.3381C19.4345 38.9166 19.1363 39.1717 18.6731 39.5489C17.8859 40.1889 17.5786 40.9235 17.7481 41.898C17.9419 43.013 17.459 43.714 16.5476 44.3479C14.6205 45.6858 12.7812 47.1506 10.8965 48.5496C10.6134 48.7604 10.5422 48.9238 10.6633 49.2904C11.4521 51.6838 10.1305 54.2237 7.77191 54.9111C5.37702 55.6091 2.93217 54.2085 2.31149 51.783C1.69233 49.3637 3.16227 46.9398 5.61015 46.393C6.80608 46.1257 7.93541 46.3426 8.9633 47.033C9.11771 47.1368 9.26758 47.2483 9.44168 47.3705C11.5414 45.7943 13.632 44.2318 15.7105 42.6494C15.8422 42.5486 15.9224 42.3027 15.927 42.121C15.9497 41.284 15.9588 40.4439 15.9224 39.607C15.9118 39.3733 15.7862 39.0983 15.6257 38.9242C14.9157 38.1606 14.1845 37.4152 13.4322 36.6943C13.2838 36.5522 13.0037 36.4866 12.7873 36.4911C10.6376 36.54 8.58636 36.1658 6.65924 35.1624C2.48407 32.9905 -0.115192 28.3351 0.322308 23.7866C0.80825 18.7295 4.10085 14.6347 8.78921 13.309C9.28878 13.1684 9.422 12.9454 9.45984 12.4643C9.94124 6.43432 14.9187 1.31005 20.8757 0.694524C25.3324 0.233262 29.0792 1.6873 32.125 4.98486C32.3794 5.25979 32.561 5.27048 32.888 5.13149C35.5176 4.01958 38.0457 4.24868 40.3285 5.97306C42.6235 7.70661 43.6045 10.0862 43.2548 12.9775C43.2063 13.3838 43.3714 13.4953 43.6877 13.6175C48.3216 15.406 51.3281 19.8521 51.2736 24.8176C51.204 31.121 46.1008 36.3629 39.8532 36.4469C38.7526 36.4621 38.0351 36.8256 37.2206 37.5466C35.9551 38.6646 35.4161 39.8773 35.5993 41.5574C35.6735 42.2432 35.8264 42.6754 36.3941 43.0832C38.3288 44.4746 40.2165 45.9317 42.1391 47.3766C43.3305 46.4022 44.6581 46.0616 46.1296 46.4342C48.4775 47.0284 49.8733 49.4691 49.245 51.8457C48.6259 54.1825 46.1992 55.5892 43.9012 54.9416C41.532 54.2742 40.1499 51.8563 40.8569 49.5088C41.0264 48.9437 40.8887 48.6901 40.4512 48.3694C38.4483 46.9062 36.4819 45.3941 34.4851 43.9233C34.0143 43.5765 33.7388 43.184 33.8205 42.5822C33.8311 42.5074 33.8205 42.4295 33.8205 42.3531C33.8205 41.0284 33.324 39.9302 32.3309 39.0586V39.0602ZM14.6296 21.0633C14.5267 20.9809 14.3253 20.8358 14.1421 20.6708C13.9453 20.4921 13.7607 20.3012 13.582 20.1057C13.1672 19.649 13.1339 19.1633 13.5472 18.7356C14.6281 17.6176 15.7241 16.5118 16.8307 15.4213C17.2501 15.0074 17.7042 15.0257 18.1417 15.4259C18.449 15.7069 18.7185 16.0322 19.0349 16.3026C19.1499 16.4018 19.3846 16.4813 19.5072 16.4293C20.4957 16.0154 21.4706 15.5679 22.5182 15.1005C22.5182 14.7095 22.5122 14.2361 22.5197 13.761C22.5334 12.9974 22.8392 12.6507 23.5749 12.6415C25.0478 12.6232 26.5208 12.6232 27.9938 12.6415C28.728 12.6507 29.0353 12.9989 29.0504 13.761C29.0595 14.2345 29.052 14.7095 29.052 15.1693C29.6938 15.4091 30.3569 15.5358 30.8792 15.8795C31.8919 16.5454 32.6579 16.521 33.4027 15.4763C33.7766 14.9524 34.3156 15.0013 34.7803 15.4595C35.8597 16.5256 36.9269 17.6039 37.9866 18.6914C38.4287 19.145 38.4272 19.6459 37.9866 20.1026C37.6324 20.4707 37.2418 20.8022 36.8724 21.1458C37.0602 21.5154 37.2131 21.7965 37.3493 22.0867C37.4871 22.3784 37.6793 22.6671 37.7278 22.9756C37.92 24.2158 38.5483 24.729 39.8214 24.509C40.3876 24.4113 40.7539 24.8252 40.76 25.4041C40.7766 26.9849 40.7766 28.5672 40.76 30.148C40.7539 30.6994 40.4224 31.011 39.8608 31.0431C39.4656 31.066 39.0675 31.0675 38.6724 31.0477C38.3621 31.0324 38.2228 31.1362 38.1092 31.4509C37.8004 32.3062 37.4401 33.1432 37.0783 33.9787C36.8891 34.4155 36.9784 34.6522 37.4432 34.6431C38.6875 34.6217 39.9516 34.6919 41.1717 34.4934C45.7662 33.7495 49.1724 29.8869 49.4524 25.2315C49.731 20.596 46.7669 16.3881 42.2874 15.0562C41.2187 14.7386 41.0658 14.4743 41.3413 13.4159C41.9181 11.192 41.1172 8.84907 39.3052 7.46071C37.4749 6.0586 35.0104 5.91961 33.0258 7.10636C32.1553 7.62566 31.9025 7.5722 31.2697 6.77645C29.1564 4.12191 26.4042 2.63579 23.045 2.44487C16.6703 2.08289 11.3506 7.10025 11.1902 13.5457C11.1659 14.4927 11.007 14.682 10.0699 14.8684C4.46266 15.9879 0.838527 21.8545 2.50375 27.3637C4.31127 33.3448 9.27515 35.0646 14.2451 34.6354C14.569 34.6079 14.7204 34.3865 14.5267 34.0214C14.2769 33.5525 13.962 33.0836 13.8636 32.5781C13.629 31.3608 13.0446 30.8186 11.7639 31.0232C11.1614 31.1194 10.8162 30.7025 10.8102 30.0854C10.7966 28.5428 10.7966 26.9986 10.8102 25.456C10.8162 24.8115 11.1569 24.4999 11.8139 24.4846C12.2105 24.4754 12.6101 24.5121 13.0022 24.4678C13.1566 24.4495 13.3625 24.2952 13.4231 24.1516C13.8212 23.1894 14.1876 22.2134 14.6326 21.0603L14.6296 21.0633ZM12.6419 29.2255C13.1218 29.2255 13.5366 29.2209 13.9499 29.2255C14.4903 29.2316 14.8431 29.4867 14.9581 30.035C15.2503 31.428 15.7862 32.7171 16.5537 33.9114C16.8383 34.3544 16.7883 34.782 16.4144 35.1532C16.095 35.4694 15.7604 35.7718 15.4879 36.0299C16.2176 36.7691 16.8746 37.4366 17.6013 38.1758C17.8616 37.8841 18.1417 37.5511 18.443 37.238C18.826 36.8394 19.268 36.8027 19.7252 37.099C20.8954 37.8566 22.1519 38.3973 23.5174 38.6829C24.0744 38.799 24.3515 39.1549 24.3333 39.7429C24.3197 40.1721 24.3303 40.6028 24.3303 41.0182H27.2384C27.2384 40.5524 27.2475 40.1339 27.2369 39.7169C27.2217 39.1549 27.4897 38.802 28.021 38.6905C29.4047 38.4003 30.6778 37.8566 31.8647 37.0868C32.3234 36.789 32.7684 36.8547 33.1423 37.2548C33.4391 37.5725 33.7115 37.9131 33.9447 38.1835C34.7046 37.4274 35.3707 36.7661 36.117 36.0238C35.834 35.7718 35.51 35.5091 35.2178 35.2158C34.7485 34.7423 34.7061 34.4063 35.0574 33.8442C35.7779 32.6896 36.3002 31.4585 36.5863 30.1221C36.7301 29.45 37.0072 29.2423 37.699 29.2255C38.1047 29.2148 38.5104 29.224 38.9192 29.224V26.3144C38.4711 26.3144 38.0593 26.3098 37.6475 26.3144C37.0708 26.3235 36.7195 26.041 36.6015 25.4774C36.3138 24.1028 35.7855 22.8305 35.0286 21.6529C34.7288 21.1871 34.7788 20.7518 35.1679 20.3623C35.4843 20.0461 35.8097 19.7422 36.0928 19.4688C35.3783 18.7372 34.7319 18.0743 33.9825 17.306C33.6949 17.6359 33.4103 17.9888 33.0984 18.3156C32.7366 18.6959 32.3143 18.7479 31.8707 18.4546C30.6733 17.6634 29.3699 17.1365 27.9741 16.8265C27.4866 16.718 27.2399 16.3912 27.2384 15.8841C27.2384 15.432 27.2384 14.9814 27.2384 14.5033H24.3288C24.3288 14.9615 24.3212 15.377 24.3303 15.7924C24.3424 16.3728 24.085 16.7241 23.5143 16.8478C22.1549 17.1426 20.8893 17.6695 19.7252 18.4378C19.2332 18.7631 18.7896 18.6883 18.4112 18.2606C18.1266 17.9384 17.8722 17.5871 17.6164 17.2633C16.811 18.0774 16.1586 18.7356 15.4168 19.4856C15.7423 19.7758 16.092 20.0629 16.4129 20.3791C16.7838 20.7456 16.8398 21.1794 16.5552 21.6223C15.7847 22.8152 15.2518 24.1058 14.9566 25.4972C14.8355 26.067 14.4661 26.3235 13.8954 26.3113C13.4851 26.3037 13.0749 26.3098 12.6404 26.3098V29.2209L12.6419 29.2255Z" fill="#133D75"/>
<path d="M25.7894 36.5367C21.0057 36.5428 17.0955 32.616 17.0818 27.7895C17.0667 22.9753 20.9754 19.0103 25.7486 18.9981C30.558 18.9859 34.491 22.9371 34.4864 27.7773C34.4819 32.5992 30.5777 36.5321 25.7909 36.5367H25.7894ZM24.5087 29.0374C23.935 28.402 23.3416 27.7147 22.7133 27.061C22.2395 26.5661 21.7172 26.5371 21.3206 26.925C20.9028 27.3329 20.9451 27.8613 21.4568 28.3699C22.2501 29.158 23.0494 29.9385 23.8487 30.7205C24.5042 31.362 24.9159 31.3559 25.5714 30.6885C27.0338 29.2023 28.4932 27.7132 29.9525 26.224C30.611 25.552 30.7018 25.0556 30.2522 24.6126C29.8208 24.1865 29.3061 24.3011 28.6551 24.9471C27.326 26.2668 25.9893 27.5788 24.5087 29.0374Z" fill="#133D75"/>
</svg>
